<svg width="149" height="62" viewBox="0 0 149 62" fill="none" xmlns="http://www.w3.org/2000/svg">
<g clip-path="url(#clip0_14_203)">
<path d="M24.47 37.438C24.6533 38.5014 24.9833 39.308 25.46 39.858C25.9733 40.3714 26.67 40.628 27.55 40.628C28.9067 40.628 29.7867 39.9497 30.19 38.593C30.63 37.1997 30.85 34.9814 30.85 31.938C30.19 32.9647 29.2367 33.7714 27.99 34.358C26.7433 34.9447 25.3317 35.238 23.755 35.238C20.235 35.238 17.4117 34.1564 15.285 31.993C13.195 29.8297 12.15 26.6947 12.15 22.588C12.15 19.838 12.7183 17.4547 13.855 15.438C15.0283 13.3847 16.6783 11.808 18.805 10.708C20.9317 9.60803 23.4433 9.05803 26.34 9.05803C30.3 9.05803 33.3983 9.88303 35.635 11.533C37.9083 13.1464 39.485 15.383 40.365 18.243C41.245 21.103 41.685 24.5864 41.685 28.693C41.685 35.8797 40.6033 41.288 38.44 44.918C36.3133 48.548 32.6833 50.363 27.55 50.363C24.5433 50.363 21.9767 49.758 19.85 48.548C17.7233 47.338 16.0917 45.7614 14.955 43.818C13.855 41.838 13.2317 39.7114 13.085 37.438H24.47ZM30.025 22.753C30.025 21.653 29.7317 20.8464 29.145 20.333C28.595 19.783 27.8067 19.508 26.78 19.508C25.7533 19.508 24.9467 19.783 24.36 20.333C23.81 20.8464 23.535 21.653 23.535 22.753C23.535 23.743 23.8283 24.513 24.415 25.063C25.0017 25.613 25.79 25.888 26.78 25.888C27.77 25.888 28.5583 25.613 29.145 25.063C29.7317 24.513 30.025 23.743 30.025 22.753ZM57.4874 37.438C57.6707 38.5014 58.0007 39.308 58.4774 39.858C58.9907 40.3714 59.6874 40.628 60.5674 40.628C61.9241 40.628 62.8041 39.9497 63.2074 38.593C63.6474 37.1997 63.8674 34.9814 63.8674 31.938C63.2074 32.9647 62.2541 33.7714 61.0074 34.358C59.7607 34.9447 58.3491 35.238 56.7724 35.238C53.2524 35.238 50.4291 34.1564 48.3024 31.993C46.2124 29.8297 45.1674 26.6947 45.1674 22.588C45.1674 19.838 45.7357 17.4547 46.8724 15.438C48.0457 13.3847 49.6957 11.808 51.8224 10.708C53.9491 9.60803 56.4607 9.05803 59.3574 9.05803C63.3174 9.05803 66.4157 9.88303 68.6524 11.533C70.9257 13.1464 72.5024 15.383 73.3824 18.243C74.2624 21.103 74.7024 24.5864 74.7024 28.693C74.7024 35.8797 73.6207 41.288 71.4574 44.918C69.3307 48.548 65.7007 50.363 60.5674 50.363C57.5607 50.363 54.9941 49.758 52.8674 48.548C50.7407 47.338 49.1091 45.7614 47.9724 43.818C46.8724 41.838 46.2491 39.7114 46.1024 37.438H57.4874ZM63.0424 22.753C63.0424 21.653 62.7491 20.8464 62.1624 20.333C61.6124 19.783 60.8241 19.508 59.7974 19.508C58.7707 19.508 57.9641 19.783 57.3774 20.333C56.8274 20.8464 56.5524 21.653 56.5524 22.753C56.5524 23.743 56.8457 24.513 57.4324 25.063C58.0191 25.613 58.8074 25.888 59.7974 25.888C60.7874 25.888 61.5757 25.613 62.1624 25.063C62.7491 24.513 63.0424 23.743 63.0424 22.753Z" fill="#30D7BA"/>
<g clip-path="url(#clip1_14_203)">
<g clip-path="url(#clip2_14_203)">
<path d="M104.41 21.508C104.41 22.628 104.11 23.658 103.51 24.598C102.91 25.538 102.02 26.288 100.84 26.848C99.66 27.408 98.24 27.688 96.58 27.688V30.088H95.29V27.628C93.11 27.448 91.33 26.788 89.95 25.648C88.59 24.508 87.84 22.988 87.7 21.088H93.16C93.22 21.728 93.43 22.268 93.79 22.708C94.17 23.148 94.67 23.448 95.29 23.608V18.838C94.95 18.738 94.73 18.668 94.63 18.628C93.17 18.208 91.97 17.788 91.03 17.368C90.11 16.928 89.31 16.288 88.63 15.448C87.97 14.588 87.64 13.458 87.64 12.058C87.64 10.838 87.97 9.76803 88.63 8.84803C89.31 7.92803 90.23 7.22803 91.39 6.74803C92.55 6.24803 93.85 5.97803 95.29 5.93803V3.47803H96.58V5.96803C98.78 6.10803 100.53 6.73803 101.83 7.85803C103.13 8.95803 103.86 10.418 104.02 12.238H98.47C98.39 11.638 98.19 11.148 97.87 10.768C97.55 10.388 97.12 10.128 96.58 9.98803V14.668L97.51 14.968C98.97 15.428 100.15 15.878 101.05 16.318C101.97 16.738 102.76 17.368 103.42 18.208C104.08 19.048 104.41 20.148 104.41 21.508ZM93.13 11.848C93.13 12.388 93.31 12.848 93.67 13.228C94.05 13.588 94.59 13.918 95.29 14.218V9.86803C94.61 9.90803 94.08 10.098 93.7 10.438C93.32 10.778 93.13 11.248 93.13 11.848ZM96.58 23.758C97.3 23.738 97.87 23.538 98.29 23.158C98.71 22.758 98.92 22.248 98.92 21.628C98.92 21.068 98.72 20.608 98.32 20.248C97.92 19.868 97.34 19.538 96.58 19.258V23.758Z" fill="#30D7BA"/>
</g>
<path d="M89.0195 48.4722V51.478H87.2617V42.9468H90.5898C91.2305 42.9468 91.793 43.064 92.2773 43.2983C92.7656 43.5327 93.1406 43.8667 93.4023 44.3003C93.6641 44.73 93.7949 45.2202 93.7949 45.771C93.7949 46.6069 93.5078 47.2671 92.9336 47.7515C92.3633 48.2319 91.5723 48.4722 90.5605 48.4722H89.0195ZM89.0195 47.0483H90.5898C91.0547 47.0483 91.4082 46.939 91.6504 46.7202C91.8965 46.5015 92.0195 46.189 92.0195 45.7827C92.0195 45.3647 91.8965 45.0269 91.6504 44.769C91.4043 44.5112 91.0645 44.3784 90.6309 44.3706H89.0195V47.0483ZM97.8324 51.5952C96.9027 51.5952 96.1449 51.3101 95.559 50.7397C94.977 50.1694 94.6859 49.4097 94.6859 48.4604V48.2964C94.6859 47.6597 94.809 47.0913 95.0551 46.5913C95.3012 46.0874 95.6488 45.7007 96.098 45.4312C96.5512 45.1577 97.0668 45.021 97.6449 45.021C98.5121 45.021 99.1937 45.2944 99.6898 45.8413C100.19 46.3882 100.44 47.1636 100.44 48.1675V48.8589H96.4027C96.4574 49.2729 96.6215 49.605 96.8949 49.855C97.1723 50.105 97.5219 50.23 97.9437 50.23C98.5961 50.23 99.1059 49.9937 99.473 49.521L100.305 50.4526C100.051 50.812 99.7074 51.0933 99.2738 51.2964C98.8402 51.4956 98.3598 51.5952 97.8324 51.5952ZM97.6391 46.3921C97.3031 46.3921 97.0297 46.5054 96.8187 46.7319C96.6117 46.9585 96.4789 47.2827 96.4203 47.7046H98.7758V47.5698C98.768 47.1948 98.6664 46.9058 98.4711 46.7026C98.2758 46.4956 97.9984 46.3921 97.6391 46.3921ZM105.069 46.7261C104.839 46.6948 104.636 46.6792 104.46 46.6792C103.819 46.6792 103.399 46.896 103.2 47.3296V51.478H101.507V45.1382H103.106L103.153 45.894C103.493 45.312 103.964 45.021 104.565 45.021C104.753 45.021 104.929 45.0464 105.093 45.0972L105.069 46.7261ZM106.523 52.2104H105.263L108.404 42.9468H109.663L106.523 52.2104ZM115.254 45.1382L115.307 45.8472C115.756 45.2964 116.363 45.021 117.129 45.021C117.945 45.021 118.506 45.3433 118.811 45.9878C119.256 45.3433 119.891 45.021 120.715 45.021C121.402 45.021 121.914 45.2222 122.25 45.6245C122.586 46.0229 122.754 46.6245 122.754 47.4292V51.478H121.055V47.4351C121.055 47.0757 120.984 46.814 120.844 46.6499C120.703 46.4819 120.455 46.3979 120.1 46.3979C119.592 46.3979 119.24 46.6401 119.045 47.1245L119.051 51.478H117.357V47.4409C117.357 47.0737 117.285 46.8081 117.141 46.644C116.996 46.48 116.75 46.3979 116.402 46.3979C115.922 46.3979 115.574 46.5972 115.359 46.9956V51.478H113.666V45.1382H115.254ZM123.897 48.2495C123.897 47.6206 124.018 47.0601 124.26 46.5679C124.502 46.0757 124.85 45.6948 125.303 45.4253C125.76 45.1558 126.289 45.021 126.891 45.021C127.746 45.021 128.444 45.2827 128.983 45.8062C129.526 46.3296 129.829 47.0405 129.891 47.939L129.903 48.3726C129.903 49.3452 129.631 50.1265 129.088 50.7163C128.545 51.3022 127.817 51.5952 126.903 51.5952C125.989 51.5952 125.258 51.3022 124.711 50.7163C124.168 50.1304 123.897 49.3335 123.897 48.3257V48.2495ZM125.59 48.3726C125.59 48.9741 125.704 49.4351 125.93 49.7554C126.157 50.0718 126.481 50.23 126.903 50.23C127.313 50.23 127.633 50.0737 127.864 49.7612C128.094 49.4448 128.209 48.9409 128.209 48.2495C128.209 47.6597 128.094 47.2026 127.864 46.8784C127.633 46.5542 127.309 46.3921 126.891 46.3921C126.477 46.3921 126.157 46.5542 125.93 46.8784C125.704 47.1987 125.59 47.6968 125.59 48.3726ZM132.604 45.1382L132.657 45.8706C133.11 45.3042 133.718 45.021 134.479 45.021C135.151 45.021 135.651 45.2183 135.979 45.6128C136.307 46.0073 136.475 46.5972 136.483 47.3823V51.478H134.79V47.4233C134.79 47.064 134.712 46.8042 134.555 46.644C134.399 46.48 134.139 46.3979 133.776 46.3979C133.3 46.3979 132.942 46.6011 132.704 47.0073V51.478H131.011V45.1382H132.604ZM139.9 43.5796V45.1382H140.984V46.3804H139.9V49.5444C139.9 49.7788 139.945 49.9468 140.034 50.0483C140.124 50.1499 140.296 50.2007 140.55 50.2007C140.737 50.2007 140.904 50.187 141.048 50.1597V51.4429C140.716 51.5444 140.374 51.5952 140.023 51.5952C138.835 51.5952 138.23 50.9956 138.206 49.7964V46.3804H137.28V45.1382H138.206V43.5796H139.9ZM143.679 45.8296C144.129 45.2905 144.693 45.021 145.373 45.021C146.748 45.021 147.445 45.8198 147.464 47.4175V51.478H145.771V47.4644C145.771 47.1011 145.693 46.8335 145.537 46.6616C145.38 46.4858 145.121 46.3979 144.757 46.3979C144.261 46.3979 143.902 46.5894 143.679 46.9722V51.478H141.986V42.478H143.679V45.8296Z" fill="#5C5C5C"/>
</g>
</g>
<defs>
<clipPath id="clip0_14_203">
<rect width="148" height="61" fill="white" transform="translate(0.5 0.478027)"/>
</clipPath>
<clipPath id="clip1_14_203">
<rect width="62" height="61" fill="white" transform="translate(86.5 0.478027)"/>
</clipPath>
<clipPath id="clip2_14_203">
<rect width="19" height="33" fill="white" transform="translate(86.5 0.478027)"/>
</clipPath>
</defs>
</svg>
