<svg width="266" height="196" viewBox="0 0 266 196" fill="none" xmlns="http://www.w3.org/2000/svg">
<g clip-path="url(#clip0_14_519)">
<g clip-path="url(#clip1_14_519)">
<path d="M23 27.8182C27.2282 27.8182 30.6667 24.3797 30.6667 20.1515C30.6667 15.9234 27.2282 12.4849 23 12.4849C18.7719 12.4849 15.3334 15.9234 15.3334 20.1515C15.3334 24.3797 18.7719 27.8182 23 27.8182ZM23 16.3182C25.1141 16.3182 26.8334 18.0374 26.8334 20.1515C26.8334 22.2656 25.1141 23.9849 23 23.9849C20.886 23.9849 19.1667 22.2656 19.1667 20.1515C19.1667 18.0374 20.886 16.3182 23 16.3182Z" fill="white"/>
<path d="M21.8885 42.7952C22.2129 43.0269 22.6015 43.1514 23.0001 43.1514C23.3987 43.1514 23.7874 43.0269 24.1118 42.7952C24.6945 42.3831 38.389 32.495 38.3335 20.1517C38.3335 11.6973 31.4545 4.81836 23.0001 4.81836C14.5457 4.81836 7.66679 11.6973 7.66679 20.1421C7.61121 32.495 21.3058 42.3831 21.8885 42.7952ZM23.0001 8.65169C29.3424 8.65169 34.5001 13.8094 34.5001 20.1613C34.5404 28.6674 26.0898 36.3054 23.0001 38.8104C19.9124 36.3034 11.4599 28.6636 11.5001 20.1517C11.5001 13.8094 16.6579 8.65169 23.0001 8.65169Z" fill="white"/>
<path d="M56.195 20.1849V18.9099H59.225V29.4849H57.785V20.1849H56.195ZM67.3316 21.7299C67.2516 21.0999 67.0366 20.6149 66.6866 20.2749C66.3466 19.9249 65.8716 19.7499 65.2616 19.7499C64.4116 19.7499 63.7666 20.0799 63.3266 20.7399C62.8966 21.3999 62.6816 22.4449 62.6816 23.8749L62.6966 24.4299C62.8466 23.8299 63.1916 23.3549 63.7316 23.0049C64.2716 22.6449 64.9066 22.4649 65.6366 22.4649C66.6866 22.4649 67.5066 22.7799 68.0966 23.4099C68.6966 24.0399 68.9966 24.9199 68.9966 26.0499C68.9966 26.7099 68.8666 27.3099 68.6066 27.8499C68.3466 28.3799 67.9466 28.8049 67.4066 29.1249C66.8766 29.4349 66.2166 29.5899 65.4266 29.5899C63.9166 29.5899 62.8766 29.1149 62.3066 28.1649C61.7466 27.2149 61.4666 25.9249 61.4666 24.2949C61.4666 22.4149 61.7666 21.0049 62.3666 20.0649C62.9766 19.1149 63.9666 18.6399 65.3366 18.6399C66.3466 18.6399 67.1216 18.9249 67.6616 19.4949C68.2116 20.0649 68.5366 20.8099 68.6366 21.7299H67.3316ZM62.8466 25.8249C62.8466 26.5549 63.0566 27.1699 63.4766 27.6699C63.9066 28.1599 64.5466 28.4049 65.3966 28.4049C66.0966 28.4049 66.6566 28.1999 67.0766 27.7899C67.4966 27.3699 67.7066 26.7849 67.7066 26.0349C67.7066 25.2249 67.4966 24.6099 67.0766 24.1899C66.6566 23.7599 66.0766 23.5449 65.3366 23.5449C64.9166 23.5449 64.5166 23.6299 64.1366 23.7999C63.7566 23.9699 63.4466 24.2299 63.2066 24.5799C62.9666 24.9199 62.8466 25.3349 62.8466 25.8249ZM70.878 24.1299C70.878 25.8299 71.158 27.1549 71.718 28.1049C72.278 29.0549 73.248 29.5299 74.628 29.5299C76.008 29.5299 76.978 29.0549 77.538 28.1049C78.108 27.1549 78.393 25.8299 78.393 24.1299C78.393 22.4499 78.108 21.1349 77.538 20.1849C76.978 19.2349 76.008 18.7599 74.628 18.7599C73.248 18.7599 72.278 19.2349 71.718 20.1849C71.158 21.1249 70.878 22.4399 70.878 24.1299ZM77.043 24.1299C77.043 24.9999 76.978 25.7299 76.848 26.3199C76.728 26.8999 76.493 27.3649 76.143 27.7149C75.793 28.0649 75.288 28.2399 74.628 28.2399C73.978 28.2399 73.478 28.0649 73.128 27.7149C72.778 27.3649 72.538 26.8999 72.408 26.3199C72.288 25.7299 72.228 24.9999 72.228 24.1299C72.228 23.2699 72.288 22.5499 72.408 21.9699C72.538 21.3899 72.778 20.9299 73.128 20.5899C73.478 20.2399 73.978 20.0649 74.628 20.0649C75.288 20.0649 75.793 20.2399 76.143 20.5899C76.493 20.9299 76.728 21.3899 76.848 21.9699C76.978 22.5499 77.043 23.2699 77.043 24.1299ZM80.2919 24.1299C80.2919 25.8299 80.5719 27.1549 81.1319 28.1049C81.6919 29.0549 82.6619 29.5299 84.0419 29.5299C85.4219 29.5299 86.3919 29.0549 86.9519 28.1049C87.5219 27.1549 87.8069 25.8299 87.8069 24.1299C87.8069 22.4499 87.5219 21.1349 86.9519 20.1849C86.3919 19.2349 85.4219 18.7599 84.0419 18.7599C82.6619 18.7599 81.6919 19.2349 81.1319 20.1849C80.5719 21.1249 80.2919 22.4399 80.2919 24.1299ZM86.4569 24.1299C86.4569 24.9999 86.3919 25.7299 86.2619 26.3199C86.1419 26.8999 85.9069 27.3649 85.5569 27.7149C85.2069 28.0649 84.7019 28.2399 84.0419 28.2399C83.3919 28.2399 82.8919 28.0649 82.5419 27.7149C82.1919 27.3649 81.9519 26.8999 81.8219 26.3199C81.7019 25.7299 81.6419 24.9999 81.6419 24.1299C81.6419 23.2699 81.7019 22.5499 81.8219 21.9699C81.9519 21.3899 82.1919 20.9299 82.5419 20.5899C82.8919 20.2399 83.3919 20.0649 84.0419 20.0649C84.7019 20.0649 85.2069 20.2399 85.5569 20.5899C85.9069 20.9299 86.1419 21.3899 86.2619 21.9699C86.3919 22.5499 86.4569 23.2699 86.4569 24.1299ZM95.2168 25.2249V29.4849H93.8518V18.9099H97.2118C98.4218 18.9099 99.3268 19.1949 99.9268 19.7649C100.527 20.3249 100.827 21.0949 100.827 22.0749C100.827 23.0649 100.517 23.8399 99.8968 24.3999C99.2768 24.9499 98.3818 25.2249 97.2118 25.2249H95.2168ZM97.0918 24.0849C97.9218 24.0849 98.5168 23.9099 98.8768 23.5599C99.2468 23.2099 99.4318 22.7149 99.4318 22.0749C99.4318 21.4149 99.2468 20.9149 98.8768 20.5749C98.5168 20.2249 97.9218 20.0499 97.0918 20.0499H95.2168V24.0849H97.0918ZM110.196 24.9099C110.196 25.1999 110.176 25.4499 110.136 25.6599H103.551C103.581 26.5999 103.846 27.3049 104.346 27.7749C104.856 28.2449 105.476 28.4799 106.206 28.4799C106.866 28.4799 107.416 28.3149 107.856 27.9849C108.306 27.6449 108.581 27.1949 108.681 26.6349H110.136C110.036 27.2049 109.811 27.7149 109.461 28.1649C109.121 28.6149 108.676 28.9649 108.126 29.2149C107.576 29.4649 106.956 29.5899 106.266 29.5899C105.476 29.5899 104.776 29.4199 104.166 29.0799C103.556 28.7399 103.076 28.2549 102.726 27.6249C102.386 26.9849 102.216 26.2349 102.216 25.3749C102.216 24.5149 102.386 23.7649 102.726 23.1249C103.076 22.4849 103.556 21.9949 104.166 21.6549C104.776 21.3149 105.476 21.1449 106.266 21.1449C107.066 21.1449 107.761 21.3149 108.351 21.6549C108.951 21.9949 109.406 22.4499 109.716 23.0199C110.036 23.5899 110.196 24.2199 110.196 24.9099ZM108.816 24.9999C108.846 24.3899 108.746 23.8799 108.516 23.4699C108.286 23.0599 107.971 22.7549 107.571 22.5549C107.171 22.3549 106.736 22.2549 106.266 22.2549C105.516 22.2549 104.886 22.4899 104.376 22.9599C103.866 23.4199 103.591 24.0999 103.551 24.9999H108.816ZM116.517 21.1149C117.477 21.1149 118.252 21.4249 118.842 22.0449C119.432 22.6549 119.727 23.5399 119.727 24.6999V29.4849H118.362V24.8199C118.362 23.9999 118.152 23.3699 117.732 22.9299C117.312 22.4899 116.742 22.2699 116.022 22.2699C115.272 22.2699 114.672 22.5149 114.222 23.0049C113.772 23.4849 113.547 24.1899 113.547 25.1199V29.4849H112.182V21.2499H113.547V23.1999C113.757 22.5299 114.127 22.0149 114.657 21.6549C115.197 21.2949 115.817 21.1149 116.517 21.1149ZM126.355 21.1149C127.315 21.1149 128.09 21.4249 128.68 22.0449C129.27 22.6549 129.565 23.5399 129.565 24.6999V29.4849H128.2V24.8199C128.2 23.9999 127.99 23.3699 127.57 22.9299C127.15 22.4899 126.58 22.2699 125.86 22.2699C125.11 22.2699 124.51 22.5149 124.06 23.0049C123.61 23.4849 123.385 24.1899 123.385 25.1199V29.4849H122.02V21.2499H123.385V23.1999C123.595 22.5299 123.965 22.0149 124.495 21.6549C125.035 21.2949 125.655 21.1149 126.355 21.1149ZM134.439 21.1449C135.369 21.1449 136.114 21.3899 136.674 21.8799C137.244 22.3599 137.589 23.0099 137.709 23.8299H136.404C136.344 23.3399 136.139 22.9399 135.789 22.6299C135.449 22.3099 134.989 22.1499 134.409 22.1499C133.919 22.1499 133.534 22.2699 133.254 22.5099C132.984 22.7399 132.849 23.0549 132.849 23.4549C132.849 23.7549 132.939 23.9999 133.119 24.1899C133.309 24.3699 133.539 24.5099 133.809 24.6099C134.089 24.6999 134.469 24.7999 134.949 24.9099C135.559 25.0499 136.049 25.1949 136.419 25.3449C136.799 25.4849 137.119 25.7149 137.379 26.0349C137.649 26.3549 137.784 26.7849 137.784 27.3249C137.784 27.9949 137.529 28.5399 137.019 28.9599C136.519 29.3799 135.849 29.5899 135.009 29.5899C134.029 29.5899 133.229 29.3549 132.609 28.8849C131.989 28.4149 131.624 27.7599 131.514 26.9199H132.834C132.884 27.4199 133.099 27.8249 133.479 28.1349C133.869 28.4449 134.379 28.5999 135.009 28.5999C135.479 28.5999 135.844 28.4799 136.104 28.2399C136.374 27.9999 136.509 27.6849 136.509 27.2949C136.509 26.9749 136.414 26.7199 136.224 26.5299C136.034 26.3399 135.799 26.1949 135.519 26.0949C135.239 25.9949 134.854 25.8899 134.364 25.7799C133.754 25.6399 133.264 25.4999 132.894 25.3599C132.534 25.2199 132.224 24.9999 131.964 24.6999C131.714 24.3899 131.589 23.9749 131.589 23.4549C131.589 22.7649 131.844 22.2099 132.354 21.7899C132.864 21.3599 133.559 21.1449 134.439 21.1449ZM140.378 21.2499L143.048 27.7299L145.523 21.2499H147.038L142.148 33.3849H140.603L142.313 29.3499L138.848 21.2499H140.378ZM149.854 18.3849V29.4849H148.489V18.3849H149.854ZM155.444 28.0299L157.994 21.2499H159.464L156.239 29.4849H154.619L151.394 21.2499H152.864L155.444 28.0299ZM164.379 21.1449C165.179 21.1449 165.854 21.3449 166.404 21.7449C166.964 22.1449 167.354 22.6799 167.574 23.3499V21.2499H168.939V29.4849H167.574V27.3849C167.354 28.0549 166.964 28.5899 166.404 28.9899C165.854 29.3899 165.179 29.5899 164.379 29.5899C163.649 29.5899 162.999 29.4199 162.429 29.0799C161.859 28.7399 161.409 28.2549 161.079 27.6249C160.759 26.9849 160.599 26.2349 160.599 25.3749C160.599 24.5149 160.759 23.7649 161.079 23.1249C161.409 22.4849 161.859 21.9949 162.429 21.6549C162.999 21.3149 163.649 21.1449 164.379 21.1449ZM164.769 22.3599C163.929 22.3599 163.254 22.6299 162.744 23.1699C162.244 23.6999 161.994 24.4349 161.994 25.3749C161.994 26.3149 162.244 27.0549 162.744 27.5949C163.254 28.1249 163.929 28.3899 164.769 28.3899C165.309 28.3899 165.789 28.2649 166.209 28.0149C166.639 27.7649 166.974 27.4149 167.214 26.9649C167.454 26.5049 167.574 25.9749 167.574 25.3749C167.574 24.7749 167.454 24.2449 167.214 23.7849C166.974 23.3249 166.639 22.9749 166.209 22.7349C165.789 22.4849 165.309 22.3599 164.769 22.3599ZM175.646 21.1149C176.606 21.1149 177.381 21.4249 177.971 22.0449C178.561 22.6549 178.856 23.5399 178.856 24.6999V29.4849H177.491V24.8199C177.491 23.9999 177.281 23.3699 176.861 22.9299C176.441 22.4899 175.871 22.2699 175.151 22.2699C174.401 22.2699 173.801 22.5149 173.351 23.0049C172.901 23.4849 172.676 24.1899 172.676 25.1199V29.4849H171.311V21.2499H172.676V23.1999C172.886 22.5299 173.256 22.0149 173.786 21.6549C174.326 21.2949 174.946 21.1149 175.646 21.1149ZM180.91 18.8349C180.91 18.5849 180.995 18.3849 181.165 18.2349C181.335 18.0749 181.56 17.9949 181.84 17.9949C182.12 17.9949 182.345 18.0749 182.515 18.2349C182.685 18.3849 182.77 18.5849 182.77 18.8349C182.77 19.0849 182.685 19.2899 182.515 19.4499C182.345 19.5999 182.12 19.6749 181.84 19.6749C181.56 19.6749 181.335 19.5999 181.165 19.4499C180.995 19.2899 180.91 19.0849 180.91 18.8349ZM182.515 21.2499V29.4849H181.15V21.2499H182.515ZM188.284 21.1449C189.084 21.1449 189.759 21.3449 190.309 21.7449C190.869 22.1449 191.259 22.6799 191.479 23.3499V21.2499H192.844V29.4849H191.479V27.3849C191.259 28.0549 190.869 28.5899 190.309 28.9899C189.759 29.3899 189.084 29.5899 188.284 29.5899C187.554 29.5899 186.904 29.4199 186.334 29.0799C185.764 28.7399 185.314 28.2549 184.984 27.6249C184.664 26.9849 184.504 26.2349 184.504 25.3749C184.504 24.5149 184.664 23.7649 184.984 23.1249C185.314 22.4849 185.764 21.9949 186.334 21.6549C186.904 21.3149 187.554 21.1449 188.284 21.1449ZM188.674 22.3599C187.834 22.3599 187.159 22.6299 186.649 23.1699C186.149 23.6999 185.899 24.4349 185.899 25.3749C185.899 26.3149 186.149 27.0549 186.649 27.5949C187.159 28.1249 187.834 28.3899 188.674 28.3899C189.214 28.3899 189.694 28.2649 190.114 28.0149C190.544 27.7649 190.879 27.4149 191.119 26.9649C191.359 26.5049 191.479 25.9749 191.479 25.3749C191.479 24.7749 191.359 24.2449 191.119 23.7849C190.879 23.3249 190.544 22.9749 190.114 22.7349C189.694 22.4849 189.214 22.3599 188.674 22.3599ZM205.318 27.0399H200.668L199.783 29.4849H198.313L202.228 19.1049H203.773L207.673 29.4849H206.203L205.318 27.0399ZM204.928 25.9749L202.993 20.6349L201.058 25.9749H204.928ZM212.449 28.0299L214.999 21.2499H216.469L213.244 29.4849H211.624L208.399 21.2499H209.869L212.449 28.0299ZM225.584 24.9099C225.584 25.1999 225.564 25.4499 225.524 25.6599H218.939C218.969 26.5999 219.234 27.3049 219.734 27.7749C220.244 28.2449 220.864 28.4799 221.594 28.4799C222.254 28.4799 222.804 28.3149 223.244 27.9849C223.694 27.6449 223.969 27.1949 224.069 26.6349H225.524C225.424 27.2049 225.199 27.7149 224.849 28.1649C224.509 28.6149 224.064 28.9649 223.514 29.2149C222.964 29.4649 222.344 29.5899 221.654 29.5899C220.864 29.5899 220.164 29.4199 219.554 29.0799C218.944 28.7399 218.464 28.2549 218.114 27.6249C217.774 26.9849 217.604 26.2349 217.604 25.3749C217.604 24.5149 217.774 23.7649 218.114 23.1249C218.464 22.4849 218.944 21.9949 219.554 21.6549C220.164 21.3149 220.864 21.1449 221.654 21.1449C222.454 21.1449 223.149 21.3149 223.739 21.6549C224.339 21.9949 224.794 22.4499 225.104 23.0199C225.424 23.5899 225.584 24.2199 225.584 24.9099ZM224.204 24.9999C224.234 24.3899 224.134 23.8799 223.904 23.4699C223.674 23.0599 223.359 22.7549 222.959 22.5549C222.559 22.3549 222.124 22.2549 221.654 22.2549C220.904 22.2549 220.274 22.4899 219.764 22.9599C219.254 23.4199 218.979 24.0999 218.939 24.9999H224.204ZM231.904 21.1149C232.864 21.1149 233.639 21.4249 234.229 22.0449C234.819 22.6549 235.114 23.5399 235.114 24.6999V29.4849H233.749V24.8199C233.749 23.9999 233.539 23.3699 233.119 22.9299C232.699 22.4899 232.129 22.2699 231.409 22.2699C230.659 22.2699 230.059 22.5149 229.609 23.0049C229.159 23.4849 228.934 24.1899 228.934 25.1199V29.4849H227.569V21.2499H228.934V23.1999C229.144 22.5299 229.514 22.0149 230.044 21.6549C230.584 21.2949 231.204 21.1149 231.904 21.1149ZM244.728 21.2499V29.4849H243.363V27.5499C243.153 28.2199 242.778 28.7349 242.238 29.0949C241.708 29.4449 241.088 29.6199 240.378 29.6199C239.428 29.6199 238.658 29.3149 238.068 28.7049C237.478 28.0849 237.183 27.1999 237.183 26.0499V21.2499H238.548V25.9149C238.548 26.7349 238.758 27.3699 239.178 27.8199C239.598 28.2599 240.168 28.4799 240.888 28.4799C241.638 28.4799 242.238 28.2399 242.688 27.7599C243.138 27.2699 243.363 26.5599 243.363 25.6299V21.2499H244.728ZM254.69 24.9099C254.69 25.1999 254.67 25.4499 254.63 25.6599H248.045C248.075 26.5999 248.34 27.3049 248.84 27.7749C249.35 28.2449 249.97 28.4799 250.7 28.4799C251.36 28.4799 251.91 28.3149 252.35 27.9849C252.8 27.6449 253.075 27.1949 253.175 26.6349H254.63C254.53 27.2049 254.305 27.7149 253.955 28.1649C253.615 28.6149 253.17 28.9649 252.62 29.2149C252.07 29.4649 251.45 29.5899 250.76 29.5899C249.97 29.5899 249.27 29.4199 248.66 29.0799C248.05 28.7399 247.57 28.2549 247.22 27.6249C246.88 26.9849 246.71 26.2349 246.71 25.3749C246.71 24.5149 246.88 23.7649 247.22 23.1249C247.57 22.4849 248.05 21.9949 248.66 21.6549C249.27 21.3149 249.97 21.1449 250.76 21.1449C251.56 21.1449 252.255 21.3149 252.845 21.6549C253.445 21.9949 253.9 22.4499 254.21 23.0199C254.53 23.5899 254.69 24.2199 254.69 24.9099ZM253.31 24.9999C253.34 24.3899 253.24 23.8799 253.01 23.4699C252.78 23.0599 252.465 22.7549 252.065 22.5549C251.665 22.3549 251.23 22.2549 250.76 22.2549C250.01 22.2549 249.38 22.4899 248.87 22.9599C248.36 23.4199 248.085 24.0999 248.045 24.9999H253.31Z" fill="white"/>
</g>
<g clip-path="url(#clip2_14_519)">
<path d="M23.3333 64.9434H11.6666C9.24579 64.9434 7.29163 66.8975 7.29163 69.3184V92.6517C7.29163 95.0725 9.24579 97.0267 11.6666 97.0267H23.3333C25.7541 97.0267 27.7083 95.0725 27.7083 92.6517V69.3184C27.7083 66.8975 25.7541 64.9434 23.3333 64.9434ZM20.4166 94.11H14.5833V92.6517H20.4166V94.11ZM25.1562 89.735H9.84371V69.3184H25.1562V89.735Z" fill="white"/>
<path d="M45.66 80.4399C45.66 78.5199 46.02 76.8049 46.74 75.2949C47.47 73.7849 48.43 72.5699 49.62 71.6499H50.955V71.7849C48.305 73.9349 46.98 76.8199 46.98 80.4399C46.98 84.0699 48.305 86.9599 50.955 89.1099V89.2449H49.62C48.43 88.3149 47.47 87.0999 46.74 85.5999C46.02 84.0999 45.66 82.3799 45.66 80.4399ZM51.1372 77.1849V75.9099H54.1672V86.4849H52.7272V77.1849H51.1372ZM55.6438 77.1849V75.9099H58.6738V86.4849H57.2338V77.1849H55.6438ZM60.1505 77.1849V75.9099H63.1805V86.4849H61.7405V77.1849H60.1505ZM69.5621 80.4399C69.5621 82.3699 69.1971 84.0899 68.4671 85.5999C67.7471 87.0999 66.7921 88.3149 65.6021 89.2449H64.2671V89.1099C66.9071 86.9499 68.2271 84.0599 68.2271 80.4399C68.2271 78.6699 67.8971 77.0599 67.2371 75.6099C66.5871 74.1499 65.5971 72.8749 64.2671 71.7849V71.6499H65.6021C66.7921 72.5699 67.7471 73.7849 68.4671 75.2949C69.1971 76.8049 69.5621 78.5199 69.5621 80.4399ZM74.52 77.1849V75.9099H77.55V86.4849H76.11V77.1849H74.52ZM79.0266 77.1849V75.9099H82.0566V86.4849H80.6166V77.1849H79.0266ZM83.5333 77.1849V75.9099H86.5633V86.4849H85.1233V77.1849H83.5333ZM93.6199 80.4099V81.5649H87.6199V80.4099H93.6199ZM95.6081 77.1849V75.9099H98.6381V86.4849H97.1981V77.1849H95.6081ZM100.115 77.1849V75.9099H103.145V86.4849H101.705V77.1849H100.115ZM104.621 77.1849V75.9099H107.651V86.4849H106.211V77.1849H104.621ZM109.128 77.1849V75.9099H112.158V86.4849H110.718V77.1849H109.128Z" fill="white"/>
</g>
<g clip-path="url(#clip3_14_519)">
<path d="M37.145 144.663C35.9202 145.192 34.5873 145.572 33.2144 145.72C34.6398 144.873 35.7072 143.535 36.2164 141.958C34.8788 142.753 33.4136 143.311 31.8855 143.607C31.2469 142.924 30.4745 142.38 29.6165 142.009C28.7585 141.638 27.8332 141.447 26.8983 141.449C23.1159 141.449 20.0739 144.515 20.0739 148.278C20.0739 148.806 20.1379 149.334 20.242 149.843C14.5783 149.546 9.52705 146.841 6.16887 142.698C5.55697 143.743 5.23632 144.933 5.24026 146.144C5.24026 148.514 6.44505 150.603 8.28224 151.832C7.19955 151.789 6.14222 151.492 5.19624 150.963V151.047C5.19624 154.366 7.54176 157.115 10.6678 157.748C10.0808 157.9 9.47704 157.978 8.87062 157.98C8.42633 157.98 8.00606 157.936 7.58178 157.876C8.44634 160.582 10.964 162.547 13.9619 162.611C11.6164 164.448 8.6785 165.529 5.48843 165.529C4.91605 165.529 4.38771 165.509 3.83936 165.445C6.86532 167.386 10.4556 168.507 14.3222 168.507C26.8743 168.507 33.7428 158.108 33.7428 149.082C33.7428 148.786 33.7428 148.49 33.7227 148.194C35.0516 147.221 36.2164 146.016 37.145 144.663Z" fill="white"/>
<path d="M100.21 138.968H70.7512C70.0427 138.968 69.4703 139.54 69.4703 140.249V169.708C69.4703 170.416 70.0427 170.989 70.7512 170.989H100.21C100.919 170.989 101.491 170.416 101.491 169.708V140.249C101.491 139.54 100.919 138.968 100.21 138.968ZM96.5119 148.314H93.9542C91.9489 148.314 91.5607 149.266 91.5607 150.667V153.753H96.3478L95.7234 158.585H91.5607V170.989H86.5694V158.589H82.3947V153.753H86.5694V150.191C86.5694 146.056 89.0951 143.803 92.7855 143.803C94.5546 143.803 96.0716 143.935 96.5159 143.995V148.314H96.5119Z" fill="white"/>
<path d="M165.198 138.968H135.739C135.031 138.968 134.458 139.54 134.458 140.249V169.708C134.458 170.416 135.031 170.989 135.739 170.989H165.198C165.907 170.989 166.479 170.416 166.479 169.708V140.249C166.479 139.54 165.907 138.968 165.198 138.968ZM143.956 166.253H139.205V150.972H143.956V166.253ZM141.583 148.882C141.038 148.882 140.506 148.721 140.053 148.418C139.6 148.116 139.247 147.685 139.039 147.182C138.83 146.679 138.776 146.125 138.882 145.591C138.988 145.057 139.25 144.566 139.636 144.181C140.021 143.796 140.511 143.534 141.046 143.428C141.58 143.321 142.133 143.376 142.637 143.584C143.14 143.793 143.57 144.146 143.872 144.598C144.175 145.051 144.337 145.584 144.337 146.128C144.333 147.649 143.1 148.882 141.583 148.882ZM161.744 166.253H156.997V158.821C156.997 157.048 156.965 154.77 154.527 154.77C152.058 154.77 151.677 156.699 151.677 158.693V166.253H146.934V150.972H151.489V153.061H151.553C152.186 151.86 153.735 150.591 156.048 150.591C160.859 150.591 161.744 153.757 161.744 157.872V166.253V166.253Z" fill="white"/>
</g>
</g>
<defs>
<clipPath id="clip0_14_519">
<rect width="266" height="194.987" fill="white" transform="translate(0 0.484863)"/>
</clipPath>
<clipPath id="clip1_14_519">
<rect width="266" height="47" fill="white" transform="translate(0 0.484863)"/>
</clipPath>
<clipPath id="clip2_14_519">
<rect width="124" height="47" fill="white" transform="translate(0 57.4849)"/>
</clipPath>
<clipPath id="clip3_14_519">
<rect width="170.96" height="80.9866" fill="white" transform="translate(0 114.485)"/>
</clipPath>
</defs>
</svg>
