<svg width="119" height="62" viewBox="0 0 119 62" fill="none" xmlns="http://www.w3.org/2000/svg">
<g clip-path="url(#clip0_14_175)">
<path d="M11.76 30.013C11.76 36.0264 13.1167 40.8297 15.83 44.423C18.5433 47.9797 22.6867 49.758 28.26 49.758C33.8333 49.758 37.9767 47.9797 40.69 44.423C43.4033 40.8297 44.76 36.0264 44.76 30.013C44.76 24.0364 43.4033 19.2697 40.69 15.713C37.9767 12.1197 33.8333 10.323 28.26 10.323C22.6867 10.323 18.5433 12.1014 15.83 15.658C13.1167 19.2147 11.76 23.9997 11.76 30.013ZM32.715 30.013C32.715 32.6164 32.4217 34.633 31.835 36.063C31.2483 37.493 30.0567 38.208 28.26 38.208C26.4267 38.208 25.2167 37.493 24.63 36.063C24.0433 34.633 23.75 32.6164 23.75 30.013C23.75 27.4097 24.0433 25.4114 24.63 24.018C25.2167 22.588 26.4267 21.873 28.26 21.873C30.0567 21.873 31.2483 22.588 31.835 24.018C32.4217 25.4114 32.715 27.4097 32.715 30.013Z" fill="#30D7BA"/>
<g clip-path="url(#clip1_14_175)">
<g clip-path="url(#clip2_14_175)">
<path d="M74.91 21.508C74.91 22.628 74.61 23.658 74.01 24.598C73.41 25.538 72.52 26.288 71.34 26.848C70.16 27.408 68.74 27.688 67.08 27.688V30.088H65.79V27.628C63.61 27.448 61.83 26.788 60.45 25.648C59.09 24.508 58.34 22.988 58.2 21.088H63.66C63.72 21.728 63.93 22.268 64.29 22.708C64.67 23.148 65.17 23.448 65.79 23.608V18.838C65.45 18.738 65.23 18.668 65.13 18.628C63.67 18.208 62.47 17.788 61.53 17.368C60.61 16.928 59.81 16.288 59.13 15.448C58.47 14.588 58.14 13.458 58.14 12.058C58.14 10.838 58.47 9.76803 59.13 8.84803C59.81 7.92803 60.73 7.22803 61.89 6.74803C63.05 6.24803 64.35 5.97803 65.79 5.93803V3.47803H67.08V5.96803C69.28 6.10803 71.03 6.73803 72.33 7.85803C73.63 8.95803 74.36 10.418 74.52 12.238H68.97C68.89 11.638 68.69 11.148 68.37 10.768C68.05 10.388 67.62 10.128 67.08 9.98803V14.668L68.01 14.968C69.47 15.428 70.65 15.878 71.55 16.318C72.47 16.738 73.26 17.368 73.92 18.208C74.58 19.048 74.91 20.148 74.91 21.508ZM63.63 11.848C63.63 12.388 63.81 12.848 64.17 13.228C64.55 13.588 65.09 13.918 65.79 14.218V9.86803C65.11 9.90803 64.58 10.098 64.2 10.438C63.82 10.778 63.63 11.248 63.63 11.848ZM67.08 23.758C67.8 23.738 68.37 23.538 68.79 23.158C69.21 22.758 69.42 22.248 69.42 21.628C69.42 21.068 69.22 20.608 68.82 20.248C68.42 19.868 67.84 19.538 67.08 19.258V23.758Z" fill="#30D7BA"/>
</g>
<path d="M61.084 48.437H58.9102V47.0659H61.084C61.4199 47.0659 61.6934 47.0112 61.9043 46.9019C62.1152 46.7886 62.2695 46.6323 62.3672 46.4331C62.4648 46.2339 62.5137 46.0093 62.5137 45.7593C62.5137 45.5054 62.4648 45.269 62.3672 45.0503C62.2695 44.8315 62.1152 44.6558 61.9043 44.5229C61.6934 44.3901 61.4199 44.3237 61.084 44.3237H59.5195V51.478H57.7617V42.9468H61.084C61.752 42.9468 62.3242 43.0679 62.8008 43.3101C63.2812 43.5483 63.6484 43.8784 63.9023 44.3003C64.1562 44.7222 64.2832 45.2046 64.2832 45.7476C64.2832 46.2983 64.1562 46.7749 63.9023 47.1772C63.6484 47.5796 63.2812 47.8901 62.8008 48.1089C62.3242 48.3276 61.752 48.437 61.084 48.437ZM68.3266 51.5952C67.8344 51.5952 67.393 51.5171 67.0023 51.3608C66.6117 51.2007 66.2797 50.98 66.0062 50.6987C65.7367 50.4175 65.5297 50.0913 65.3852 49.7202C65.2406 49.3452 65.1684 48.9468 65.1684 48.5249V48.2905C65.1684 47.8101 65.2367 47.3706 65.3734 46.9722C65.5102 46.5737 65.7055 46.228 65.9594 45.9351C66.2172 45.6421 66.5297 45.4175 66.8969 45.2612C67.2641 45.1011 67.6781 45.021 68.1391 45.021C68.5883 45.021 68.9867 45.0952 69.3344 45.2437C69.682 45.3921 69.973 45.603 70.2074 45.8765C70.4457 46.1499 70.6254 46.478 70.7465 46.8608C70.8676 47.2397 70.9281 47.6616 70.9281 48.1265V48.8296H65.8891V47.7046H69.2699V47.5757C69.2699 47.3413 69.227 47.1323 69.141 46.9487C69.059 46.7612 68.934 46.6128 68.766 46.5034C68.598 46.394 68.3832 46.3394 68.1215 46.3394C67.8988 46.3394 67.7074 46.3882 67.5473 46.4858C67.3871 46.5835 67.2562 46.7202 67.1547 46.896C67.057 47.0718 66.9828 47.2788 66.932 47.5171C66.8852 47.7515 66.8617 48.0093 66.8617 48.2905V48.5249C66.8617 48.7788 66.8969 49.0132 66.9672 49.228C67.0414 49.4429 67.1449 49.6284 67.2777 49.7847C67.4145 49.9409 67.5785 50.062 67.7699 50.1479C67.9652 50.2339 68.1859 50.2769 68.432 50.2769C68.7367 50.2769 69.0199 50.2183 69.2816 50.1011C69.5473 49.98 69.7758 49.7983 69.9672 49.5562L70.7875 50.4468C70.6547 50.6382 70.473 50.8218 70.2426 50.9976C70.016 51.1733 69.7426 51.3179 69.4223 51.4312C69.102 51.5405 68.7367 51.5952 68.3266 51.5952ZM73.6766 46.521V51.478H71.9891V45.1382H73.577L73.6766 46.521ZM75.5867 45.0972L75.5574 46.6616C75.4754 46.6499 75.3758 46.6401 75.2586 46.6323C75.1453 46.6206 75.0418 46.6147 74.948 46.6147C74.7098 46.6147 74.5027 46.646 74.327 46.7085C74.1551 46.7671 74.0105 46.855 73.8934 46.9722C73.7801 47.0894 73.6941 47.2319 73.6355 47.3999C73.5809 47.5679 73.5496 47.7593 73.5418 47.9741L73.202 47.8687C73.202 47.4585 73.243 47.0815 73.325 46.7378C73.407 46.3901 73.5262 46.0874 73.6824 45.8296C73.8426 45.5718 74.0379 45.3726 74.2684 45.2319C74.4988 45.0913 74.7625 45.021 75.0594 45.021C75.1531 45.021 75.2488 45.0288 75.3465 45.0444C75.4441 45.0562 75.5242 45.0737 75.5867 45.0972ZM80.1281 42.9468L76.9992 52.2104H75.7453L78.8742 42.9468H80.1281ZM85.8125 46.4507V51.478H84.1191V45.1382H85.707L85.8125 46.4507ZM85.5781 48.0854H85.1094C85.1094 47.644 85.1621 47.2378 85.2676 46.8667C85.377 46.4917 85.5352 46.1675 85.7422 45.894C85.9531 45.6167 86.2129 45.4019 86.5215 45.2495C86.8301 45.0972 87.1875 45.021 87.5938 45.021C87.875 45.021 88.1328 45.064 88.3672 45.1499C88.6016 45.2319 88.8027 45.3628 88.9707 45.5425C89.1426 45.7183 89.2754 45.9487 89.3691 46.2339C89.4629 46.5151 89.5098 46.853 89.5098 47.2476V51.478H87.8223V47.4351C87.8223 47.146 87.7832 46.9233 87.7051 46.7671C87.627 46.6108 87.5156 46.5015 87.3711 46.439C87.2305 46.3765 87.0605 46.3452 86.8613 46.3452C86.6426 46.3452 86.4512 46.3901 86.2871 46.48C86.127 46.5698 85.9941 46.6948 85.8887 46.855C85.7832 47.0112 85.7051 47.1948 85.6543 47.4058C85.6035 47.6167 85.5781 47.8433 85.5781 48.0854ZM89.3516 47.8921L88.748 47.9683C88.748 47.5542 88.7988 47.1694 88.9004 46.814C89.0059 46.4585 89.1602 46.146 89.3633 45.8765C89.5703 45.6069 89.8262 45.3979 90.1309 45.2495C90.4355 45.0972 90.7871 45.021 91.1855 45.021C91.4902 45.021 91.7676 45.0659 92.0176 45.1558C92.2676 45.2417 92.4805 45.3804 92.6562 45.5718C92.8359 45.7593 92.9727 46.0054 93.0664 46.3101C93.1641 46.6147 93.2129 46.9878 93.2129 47.4292V51.478H91.5195V47.4292C91.5195 47.1362 91.4805 46.9136 91.4023 46.7612C91.3281 46.605 91.2188 46.4976 91.0742 46.439C90.9336 46.3765 90.7656 46.3452 90.5703 46.3452C90.3672 46.3452 90.1895 46.3862 90.0371 46.4683C89.8848 46.5464 89.7578 46.6558 89.6562 46.7964C89.5547 46.937 89.4785 47.1011 89.4277 47.2886C89.377 47.4722 89.3516 47.6733 89.3516 47.8921ZM94.35 48.3726V48.2495C94.35 47.7847 94.4164 47.3569 94.5492 46.9663C94.682 46.5718 94.8754 46.23 95.1293 45.9409C95.3832 45.6519 95.6957 45.4272 96.0668 45.2671C96.4379 45.103 96.8637 45.021 97.3441 45.021C97.8246 45.021 98.2523 45.103 98.6273 45.2671C99.0023 45.4272 99.3168 45.6519 99.5707 45.9409C99.8285 46.23 100.024 46.5718 100.157 46.9663C100.289 47.3569 100.356 47.7847 100.356 48.2495V48.3726C100.356 48.8335 100.289 49.2612 100.157 49.6558C100.024 50.0464 99.8285 50.3882 99.5707 50.6812C99.3168 50.9702 99.0043 51.1948 98.6332 51.355C98.2621 51.5151 97.8363 51.5952 97.3559 51.5952C96.8754 51.5952 96.4477 51.5151 96.0727 51.355C95.7016 51.1948 95.3871 50.9702 95.1293 50.6812C94.8754 50.3882 94.682 50.0464 94.5492 49.6558C94.4164 49.2612 94.35 48.8335 94.35 48.3726ZM96.0375 48.2495V48.3726C96.0375 48.6382 96.0609 48.8862 96.1078 49.1167C96.1547 49.3472 96.2289 49.5503 96.3305 49.7261C96.4359 49.8979 96.5727 50.0327 96.7406 50.1304C96.9086 50.228 97.1137 50.2769 97.3559 50.2769C97.5902 50.2769 97.7914 50.228 97.9594 50.1304C98.1273 50.0327 98.2621 49.8979 98.3637 49.7261C98.4652 49.5503 98.5395 49.3472 98.5863 49.1167C98.6371 48.8862 98.6625 48.6382 98.6625 48.3726V48.2495C98.6625 47.9917 98.6371 47.7495 98.5863 47.5229C98.5395 47.2925 98.4633 47.0894 98.3578 46.9136C98.2562 46.7339 98.1215 46.5933 97.9535 46.4917C97.7855 46.3901 97.5824 46.3394 97.3441 46.3394C97.1059 46.3394 96.9027 46.3901 96.7348 46.4917C96.5707 46.5933 96.4359 46.7339 96.3305 46.9136C96.2289 47.0894 96.1547 47.2925 96.1078 47.5229C96.0609 47.7495 96.0375 47.9917 96.0375 48.2495ZM103.145 46.4917V51.478H101.458V45.1382H103.04L103.145 46.4917ZM102.899 48.0854H102.442C102.442 47.6167 102.503 47.1948 102.624 46.8198C102.745 46.4409 102.915 46.1187 103.134 45.853C103.352 45.5835 103.612 45.3784 103.913 45.2378C104.218 45.0933 104.557 45.021 104.932 45.021C105.229 45.021 105.501 45.064 105.747 45.1499C105.993 45.2358 106.204 45.3726 106.38 45.5601C106.559 45.7476 106.696 45.9956 106.79 46.3042C106.888 46.6128 106.936 46.9897 106.936 47.4351V51.478H105.237V47.4292C105.237 47.1479 105.198 46.9292 105.12 46.7729C105.042 46.6167 104.927 46.5073 104.774 46.4448C104.626 46.3784 104.442 46.3452 104.223 46.3452C103.997 46.3452 103.8 46.3901 103.632 46.48C103.468 46.5698 103.331 46.6948 103.221 46.855C103.116 47.0112 103.036 47.1948 102.981 47.4058C102.927 47.6167 102.899 47.8433 102.899 48.0854ZM111.425 45.1382V46.3335H107.734V45.1382H111.425ZM108.648 43.5737H110.335V49.5679C110.335 49.7515 110.359 49.8921 110.405 49.9897C110.456 50.0874 110.53 50.1558 110.628 50.1948C110.726 50.23 110.849 50.2476 110.997 50.2476C111.103 50.2476 111.196 50.2437 111.279 50.2358C111.364 50.2241 111.437 50.2124 111.495 50.2007L111.501 51.4429C111.357 51.4897 111.2 51.5269 111.032 51.5542C110.864 51.5815 110.679 51.5952 110.476 51.5952C110.105 51.5952 109.78 51.5347 109.503 51.4136C109.23 51.2886 109.019 51.0894 108.87 50.8159C108.722 50.5425 108.648 50.1831 108.648 49.7378V43.5737ZM114.132 42.478V51.478H112.445V42.478H114.132ZM113.892 48.0854H113.429C113.433 47.644 113.492 47.2378 113.605 46.8667C113.718 46.4917 113.88 46.1675 114.091 45.894C114.302 45.6167 114.554 45.4019 114.847 45.2495C115.144 45.0972 115.472 45.021 115.832 45.021C116.144 45.021 116.427 45.0659 116.681 45.1558C116.939 45.2417 117.16 45.3823 117.343 45.5776C117.531 45.769 117.675 46.021 117.777 46.3335C117.879 46.646 117.929 47.0249 117.929 47.4702V51.478H116.23V47.4585C116.23 47.1772 116.189 46.9565 116.107 46.7964C116.029 46.6323 115.914 46.5171 115.761 46.4507C115.613 46.3804 115.429 46.3452 115.211 46.3452C114.968 46.3452 114.761 46.3901 114.589 46.48C114.421 46.5698 114.287 46.6948 114.185 46.855C114.084 47.0112 114.009 47.1948 113.963 47.4058C113.916 47.6167 113.892 47.8433 113.892 48.0854Z" fill="#5C5C5C"/>
</g>
</g>
<defs>
<clipPath id="clip0_14_175">
<rect width="119" height="61" fill="white" transform="translate(0 0.478027)"/>
</clipPath>
<clipPath id="clip1_14_175">
<rect width="62" height="61" fill="white" transform="translate(57 0.478027)"/>
</clipPath>
<clipPath id="clip2_14_175">
<rect width="19" height="33" fill="white" transform="translate(57 0.478027)"/>
</clipPath>
</defs>
</svg>
