<svg width="141" height="62" viewBox="0 0 141 62" fill="none" xmlns="http://www.w3.org/2000/svg">
<g clip-path="url(#clip0_14_189)">
<path d="M10.55 22.478V11.038H29.195V49.978H16.38V22.478H10.55ZM33.9278 30.013C33.9278 36.0264 35.2844 40.8297 37.9978 44.423C40.7111 47.9797 44.8544 49.758 50.4278 49.758C56.0011 49.758 60.1444 47.9797 62.8578 44.423C65.5711 40.8297 66.9278 36.0264 66.9278 30.013C66.9278 24.0364 65.5711 19.2697 62.8578 15.713C60.1444 12.1197 56.0011 10.323 50.4278 10.323C44.8544 10.323 40.7111 12.1014 37.9978 15.658C35.2844 19.2147 33.9278 23.9997 33.9278 30.013ZM54.8828 30.013C54.8828 32.6164 54.5894 34.633 54.0028 36.063C53.4161 37.493 52.2244 38.208 50.4278 38.208C48.5944 38.208 47.3844 37.493 46.7978 36.063C46.2111 34.633 45.9178 32.6164 45.9178 30.013C45.9178 27.4097 46.2111 25.4114 46.7978 24.018C47.3844 22.588 48.5944 21.873 50.4278 21.873C52.2244 21.873 53.4161 22.588 54.0028 24.018C54.5894 25.4114 54.8828 27.4097 54.8828 30.013Z" fill="#30D7BA"/>
<g clip-path="url(#clip1_14_189)">
<g clip-path="url(#clip2_14_189)">
<path d="M96.91 21.508C96.91 22.628 96.61 23.658 96.01 24.598C95.41 25.538 94.52 26.288 93.34 26.848C92.16 27.408 90.74 27.688 89.08 27.688V30.088H87.79V27.628C85.61 27.448 83.83 26.788 82.45 25.648C81.09 24.508 80.34 22.988 80.2 21.088H85.66C85.72 21.728 85.93 22.268 86.29 22.708C86.67 23.148 87.17 23.448 87.79 23.608V18.838C87.45 18.738 87.23 18.668 87.13 18.628C85.67 18.208 84.47 17.788 83.53 17.368C82.61 16.928 81.81 16.288 81.13 15.448C80.47 14.588 80.14 13.458 80.14 12.058C80.14 10.838 80.47 9.76803 81.13 8.84803C81.81 7.92803 82.73 7.22803 83.89 6.74803C85.05 6.24803 86.35 5.97803 87.79 5.93803V3.47803H89.08V5.96803C91.28 6.10803 93.03 6.73803 94.33 7.85803C95.63 8.95803 96.36 10.418 96.52 12.238H90.97C90.89 11.638 90.69 11.148 90.37 10.768C90.05 10.388 89.62 10.128 89.08 9.98803V14.668L90.01 14.968C91.47 15.428 92.65 15.878 93.55 16.318C94.47 16.738 95.26 17.368 95.92 18.208C96.58 19.048 96.91 20.148 96.91 21.508ZM85.63 11.848C85.63 12.388 85.81 12.848 86.17 13.228C86.55 13.588 87.09 13.918 87.79 14.218V9.86803C87.11 9.90803 86.58 10.098 86.2 10.438C85.82 10.778 85.63 11.248 85.63 11.848ZM89.08 23.758C89.8 23.738 90.37 23.538 90.79 23.158C91.21 22.758 91.42 22.248 91.42 21.628C91.42 21.068 91.22 20.608 90.82 20.248C90.42 19.868 89.84 19.538 89.08 19.258V23.758Z" fill="#30D7BA"/>
</g>
<path d="M81.5195 48.4722V51.478H79.7617V42.9468H83.0898C83.7305 42.9468 84.293 43.064 84.7773 43.2983C85.2656 43.5327 85.6406 43.8667 85.9023 44.3003C86.1641 44.73 86.2949 45.2202 86.2949 45.771C86.2949 46.6069 86.0078 47.2671 85.4336 47.7515C84.8633 48.2319 84.0723 48.4722 83.0605 48.4722H81.5195ZM81.5195 47.0483H83.0898C83.5547 47.0483 83.9082 46.939 84.1504 46.7202C84.3965 46.5015 84.5195 46.189 84.5195 45.7827C84.5195 45.3647 84.3965 45.0269 84.1504 44.769C83.9043 44.5112 83.5645 44.3784 83.1309 44.3706H81.5195V47.0483ZM90.3324 51.5952C89.4027 51.5952 88.6449 51.3101 88.059 50.7397C87.477 50.1694 87.1859 49.4097 87.1859 48.4604V48.2964C87.1859 47.6597 87.309 47.0913 87.5551 46.5913C87.8012 46.0874 88.1488 45.7007 88.598 45.4312C89.0512 45.1577 89.5668 45.021 90.1449 45.021C91.0121 45.021 91.6937 45.2944 92.1898 45.8413C92.6898 46.3882 92.9398 47.1636 92.9398 48.1675V48.8589H88.9027C88.9574 49.2729 89.1215 49.605 89.3949 49.855C89.6723 50.105 90.0219 50.23 90.4437 50.23C91.0961 50.23 91.6059 49.9937 91.973 49.521L92.8051 50.4526C92.5512 50.812 92.2074 51.0933 91.7738 51.2964C91.3402 51.4956 90.8598 51.5952 90.3324 51.5952ZM90.1391 46.3921C89.8031 46.3921 89.5297 46.5054 89.3187 46.7319C89.1117 46.9585 88.9789 47.2827 88.9203 47.7046H91.2758V47.5698C91.268 47.1948 91.1664 46.9058 90.9711 46.7026C90.7758 46.4956 90.4984 46.3921 90.1391 46.3921ZM97.5691 46.7261C97.3387 46.6948 97.1355 46.6792 96.9598 46.6792C96.3191 46.6792 95.8992 46.896 95.7 47.3296V51.478H94.0066V45.1382H95.6062L95.6531 45.894C95.993 45.312 96.4637 45.021 97.0652 45.021C97.2527 45.021 97.4285 45.0464 97.5926 45.0972L97.5691 46.7261ZM99.0227 52.2104H97.7629L100.904 42.9468H102.163L99.0227 52.2104ZM107.754 45.1382L107.807 45.8472C108.256 45.2964 108.863 45.021 109.629 45.021C110.445 45.021 111.006 45.3433 111.311 45.9878C111.756 45.3433 112.391 45.021 113.215 45.021C113.902 45.021 114.414 45.2222 114.75 45.6245C115.086 46.0229 115.254 46.6245 115.254 47.4292V51.478H113.555V47.4351C113.555 47.0757 113.484 46.814 113.344 46.6499C113.203 46.4819 112.955 46.3979 112.6 46.3979C112.092 46.3979 111.74 46.6401 111.545 47.1245L111.551 51.478H109.857V47.4409C109.857 47.0737 109.785 46.8081 109.641 46.644C109.496 46.48 109.25 46.3979 108.902 46.3979C108.422 46.3979 108.074 46.5972 107.859 46.9956V51.478H106.166V45.1382H107.754ZM116.397 48.2495C116.397 47.6206 116.518 47.0601 116.76 46.5679C117.002 46.0757 117.35 45.6948 117.803 45.4253C118.26 45.1558 118.789 45.021 119.391 45.021C120.246 45.021 120.944 45.2827 121.483 45.8062C122.026 46.3296 122.329 47.0405 122.391 47.939L122.403 48.3726C122.403 49.3452 122.131 50.1265 121.588 50.7163C121.045 51.3022 120.317 51.5952 119.403 51.5952C118.489 51.5952 117.758 51.3022 117.211 50.7163C116.668 50.1304 116.397 49.3335 116.397 48.3257V48.2495ZM118.09 48.3726C118.09 48.9741 118.204 49.4351 118.43 49.7554C118.657 50.0718 118.981 50.23 119.403 50.23C119.813 50.23 120.133 50.0737 120.364 49.7612C120.594 49.4448 120.709 48.9409 120.709 48.2495C120.709 47.6597 120.594 47.2026 120.364 46.8784C120.133 46.5542 119.809 46.3921 119.391 46.3921C118.977 46.3921 118.657 46.5542 118.43 46.8784C118.204 47.1987 118.09 47.6968 118.09 48.3726ZM125.104 45.1382L125.157 45.8706C125.61 45.3042 126.218 45.021 126.979 45.021C127.651 45.021 128.151 45.2183 128.479 45.6128C128.807 46.0073 128.975 46.5972 128.983 47.3823V51.478H127.29V47.4233C127.29 47.064 127.212 46.8042 127.055 46.644C126.899 46.48 126.639 46.3979 126.276 46.3979C125.8 46.3979 125.442 46.6011 125.204 47.0073V51.478H123.511V45.1382H125.104ZM132.4 43.5796V45.1382H133.484V46.3804H132.4V49.5444C132.4 49.7788 132.445 49.9468 132.534 50.0483C132.624 50.1499 132.796 50.2007 133.05 50.2007C133.237 50.2007 133.404 50.187 133.548 50.1597V51.4429C133.216 51.5444 132.874 51.5952 132.523 51.5952C131.335 51.5952 130.73 50.9956 130.706 49.7964V46.3804H129.78V45.1382H130.706V43.5796H132.4ZM136.179 45.8296C136.629 45.2905 137.193 45.021 137.873 45.021C139.248 45.021 139.945 45.8198 139.964 47.4175V51.478H138.271V47.4644C138.271 47.1011 138.193 46.8335 138.037 46.6616C137.88 46.4858 137.621 46.3979 137.257 46.3979C136.761 46.3979 136.402 46.5894 136.179 46.9722V51.478H134.486V42.478H136.179V45.8296Z" fill="#5C5C5C"/>
</g>
</g>
<defs>
<clipPath id="clip0_14_189">
<rect width="141" height="61" fill="white" transform="translate(0 0.478027)"/>
</clipPath>
<clipPath id="clip1_14_189">
<rect width="62" height="61" fill="white" transform="translate(79 0.478027)"/>
</clipPath>
<clipPath id="clip2_14_189">
<rect width="19" height="33" fill="white" transform="translate(79 0.478027)"/>
</clipPath>
</defs>
</svg>
